<svg width="20" height="20" viewBox="0 0 20 20" fill="none" xmlns="http://www.w3.org/2000/svg">
<g clip-path="url(#clip0_0_1227)">
<path d="M19.0442 0.956506C18.4776 0.390837 17.7098 0.0731201 16.9092 0.0731201C16.1086 0.0731201 15.3407 0.390837 14.7742 0.956506L1.22083 14.5098C0.832707 14.8958 0.524966 15.3549 0.315412 15.8605C0.105859 16.3661 -0.00134691 16.9083 -2.77444e-06 17.4557V19.1665C-2.77444e-06 19.3875 0.0877946 19.5995 0.244075 19.7558C0.400355 19.912 0.612317 19.9998 0.833331 19.9998H2.54416C3.09147 20.0014 3.63364 19.8944 4.13929 19.6849C4.64495 19.4755 5.10404 19.1679 5.49 18.7798L19.0442 5.22567C19.6096 4.65917 19.9271 3.89148 19.9271 3.09109C19.9271 2.2907 19.6096 1.52301 19.0442 0.956506ZM4.31166 17.6015C3.84167 18.0684 3.20663 18.3313 2.54416 18.3332H1.66666V17.4557C1.66582 17.1273 1.73013 16.8019 1.85586 16.4985C1.9816 16.1952 2.16626 15.9197 2.39916 15.6882L12.685 5.40234L14.6017 7.31901L4.31166 17.6015ZM17.865 4.04734L15.7767 6.13651L13.86 4.22401L15.9492 2.13484C16.075 2.00926 16.2244 1.9097 16.3887 1.84185C16.553 1.77399 16.7291 1.73916 16.9069 1.73936C17.0847 1.73955 17.2607 1.77476 17.4249 1.84297C17.589 1.91119 17.7382 2.01107 17.8637 2.13692C17.9893 2.26277 18.0889 2.41212 18.1567 2.57645C18.2246 2.74078 18.2594 2.91686 18.2592 3.09465C18.259 3.27243 18.2238 3.44844 18.1556 3.61262C18.0874 3.77679 17.9875 3.92593 17.8617 4.05151L17.865 4.04734Z" fill="#5F646E"/>
</g>
<defs>
<clipPath id="clip0_0_1227">
<rect width="20" height="20" fill="white"/>
</clipPath>
</defs>
</svg>
