<svg width="24" height="24" viewBox="0 0 24 24" fill="none" xmlns="http://www.w3.org/2000/svg">
<g clip-path="url(#clip0_0_923)">
<path d="M16.2572 3.51337L20.486 3.51337L20.486 10.3786L13.6197 10.3786L13.6197 8.83189L17.4083 5.03987L17.5981 4.8541L16.2572 3.51337Z" fill="#099A71"/>
<path d="M12 0L16.8549 4.85411L12 9.70823L10.9054 8.61383L10.9054 2.98839L9.01112 2.98839L12 0Z" fill="#21244B"/>
<path d="M3.51397 3.51337L3.51397 7.74153L4.66914 6.58656L4.85493 6.4008L8.83339 10.3786L10.3803 10.3786L10.3803 3.51337L3.51397 3.51337Z" fill="#099A71"/>
<path d="M0 11.998L4.85493 7.14386L9.70986 11.998L8.61528 13.0924L2.99293 13.0924L2.99293 14.9864L0 11.998Z" fill="#21244B"/>
<path d="M3.51397 20.4826L3.51801 13.6173L10.3803 13.6173L10.3803 15.1681L6.58768 18.9561L6.40593 19.1418L6.58768 19.3276L7.74285 20.4826L3.51397 20.4826Z" fill="#099A71"/>
<path d="M12 24L7.14507 19.1418L12 14.2877L13.0946 15.3821L13.0946 21.0076L14.9929 21.0076L12 24Z" fill="#21244B"/>
<path d="M20.486 20.4826L13.6156 20.4826L13.6197 13.6173L15.1666 13.6173L18.9593 17.4094L19.1451 17.5951L19.3309 17.4094L20.486 16.2544L20.486 20.4826Z" fill="#099A71"/>
<path d="M19.1451 16.8521L14.2901 11.998L15.3847 10.9036L21.0111 10.9036L21.0111 9.00961L24 11.998L19.1451 16.8521Z" fill="#21244B"/>
</g>
<defs>
<clipPath id="clip0_0_923">
<rect width="24" height="24" fill="white"/>
</clipPath>
</defs>
</svg>
