<svg width="41" height="40" viewBox="0 0 41 40" fill="none" xmlns="http://www.w3.org/2000/svg">
<g clip-path="url(#clip0_730_476)">
<path d="M27.5953 5.85559L34.6434 5.85559L34.6434 17.2976L23.1995 17.2976L23.1995 14.7198L29.5138 8.39976L29.8302 8.09015L27.5953 5.85559Z" fill="white"/>
<path d="M20.5 0L28.5916 8.09019L20.5 16.1804L18.6757 14.3564L18.6757 4.98065L15.5186 4.98065L20.5 0Z" fill="white"/>
<path d="M6.35663 5.85559L6.35663 12.9025L8.28191 10.9776L8.59157 10.668L15.2223 17.2976L17.8006 17.2976L17.8006 5.85559L6.35663 5.85559Z" fill="white"/>
<path d="M0.5 19.9966L8.59155 11.9064L16.6831 19.9966L14.8588 21.8206L5.48822 21.8206L5.48822 24.9773L0.5 19.9966Z" fill="white"/>
<path d="M6.35663 34.1376L6.36336 22.6956L17.8006 22.6956L17.8006 25.2801L11.4795 31.5934L11.1766 31.903L11.4795 32.2126L13.4048 34.1376L6.35663 34.1376Z" fill="white"/>
<path d="M20.5 40L12.4084 31.9031L20.5 23.8129L22.3243 25.6369L22.3243 35.0126L25.4882 35.0126L20.5 40Z" fill="white"/>
<path d="M34.6434 34.1376L23.1927 34.1376L23.1994 22.6956L25.7777 22.6956L32.0988 29.0156L32.4084 29.3252L32.7181 29.0156L34.6434 27.0906L34.6434 34.1376Z" fill="white"/>
<path d="M32.4084 28.0869L24.3169 19.9967L26.1412 18.1727L35.5185 18.1727L35.5185 15.016L40.5 19.9967L32.4084 28.0869Z" fill="white"/>
</g>
<defs>
<clipPath id="clip0_730_476">
<rect width="40" height="40" fill="white" transform="translate(0.5)"/>
</clipPath>
</defs>
</svg>
