<svg width="14" height="14" viewBox="0 0 14 14" fill="none" xmlns="http://www.w3.org/2000/svg">
<g clip-path="url(#clip0_0_940)">
<path d="M5.54166 12.5417C5.54166 13.3471 6.19458 14 6.99999 14C7.8054 14 8.45831 13.3471 8.45831 12.5417C8.45831 11.7363 7.8054 11.0834 6.99999 11.0834C6.19458 11.0834 5.54166 11.7363 5.54166 12.5417Z" fill="#0C1230"/>
<path d="M5.54166 7.00001C5.54166 7.80542 6.19458 8.45834 6.99999 8.45834C7.8054 8.45834 8.45831 7.80542 8.45831 7.00001C8.45831 6.1946 7.8054 5.54169 6.99999 5.54169C6.19458 5.54169 5.54166 6.1946 5.54166 7.00001Z" fill="#0C1230"/>
<path d="M5.54166 1.45832C5.54166 2.26373 6.19458 2.91665 6.99999 2.91665C7.8054 2.91665 8.45831 2.26373 8.45831 1.45832C8.45831 0.652914 7.8054 -2.85398e-08 6.99999 -6.37454e-08C6.19458 -9.8951e-08 5.54166 0.652914 5.54166 1.45832Z" fill="#0C1230"/>
</g>
<defs>
<clipPath id="clip0_0_940">
<rect width="14" height="14" fill="white" transform="translate(14) rotate(90)"/>
</clipPath>
</defs>
</svg>
