<svg width="20" height="20" viewBox="0 0 20 20" fill="none" xmlns="http://www.w3.org/2000/svg">
<path d="M16.6667 8.66667H11.3333V3.33333C11.3333 2.97971 11.1929 2.64057 10.9428 2.39052C10.6928 2.14048 10.3536 2 10 2C9.64638 2 9.30724 2.14048 9.05719 2.39052C8.80714 2.64057 8.66667 2.97971 8.66667 3.33333V8.66667H3.33333C2.97971 8.66667 2.64057 8.80714 2.39052 9.05719C2.14048 9.30724 2 9.64638 2 10C2 10.3536 2.14048 10.6928 2.39052 10.9428C2.64057 11.1929 2.97971 11.3333 3.33333 11.3333H8.66667V16.6667C8.66667 17.0203 8.80714 17.3594 9.05719 17.6095C9.30724 17.8595 9.64638 18 10 18C10.3536 18 10.6928 17.8595 10.9428 17.6095C11.1929 17.3594 11.3333 17.0203 11.3333 16.6667V11.3333H16.6667C17.0203 11.3333 17.3594 11.1929 17.6095 10.9428C17.8595 10.6928 18 10.3536 18 10C18 9.64638 17.8595 9.30724 17.6095 9.05719C17.3594 8.80714 17.0203 8.66667 16.6667 8.66667Z" fill="white"/>
</svg>
