<svg width="25" height="24" viewBox="0 0 25 24" fill="none" xmlns="http://www.w3.org/2000/svg">
<g clip-path="url(#clip0_526_463)">
<path d="M19.213 12H14.5C13.9695 12 13.4608 11.7893 13.0858 11.4143C12.7107 11.0392 12.5 10.5305 12.5 10V5.27404C12.5013 4.81403 12.3969 4.35986 12.1947 3.94665C11.9925 3.53344 11.698 3.17227 11.334 2.89104C10.989 2.61786 10.5859 2.42762 10.1557 2.33503C9.72549 2.24244 9.27978 2.24997 8.85297 2.35704C6.42863 2.95886 4.2823 4.37011 2.76894 6.35741C1.25558 8.34471 0.465845 10.789 0.53033 13.2861C0.594816 15.7832 1.50966 18.1835 3.12358 20.09C4.73749 21.9966 6.9538 23.2952 9.40597 23.771C12.1631 24.2988 15.0176 23.7525 17.385 22.244C19.7524 20.7355 21.4535 18.379 22.14 15.657C22.2474 15.2297 22.2553 14.7833 22.1629 14.3525C22.0704 13.9216 21.8803 13.5177 21.607 13.172C21.3224 12.8085 20.9592 12.5142 20.5445 12.3112C20.1299 12.1082 19.6746 12.0018 19.213 12ZM20.201 15.168C19.8181 16.7099 19.0325 18.1224 17.9246 19.2611C16.8167 20.3997 15.4263 21.2237 13.8955 21.6486C12.3647 22.0736 10.7485 22.0843 9.21217 21.6797C7.67586 21.2751 6.27459 20.4697 5.15168 19.3459C4.02877 18.222 3.22452 16.8201 2.82119 15.2834C2.41786 13.7468 2.42993 12.1306 2.85617 10.6002C3.2824 9.0697 4.1075 7.67993 5.24707 6.57299C6.38664 5.46604 7.79979 4.68165 9.34197 4.30004C9.4739 4.26708 9.61172 4.26547 9.74439 4.29534C9.87706 4.32521 10.0009 4.38572 10.106 4.47204C10.2301 4.56665 10.3307 4.68857 10.4001 4.82835C10.4694 4.96812 10.5057 5.122 10.506 5.27804V10C10.506 11.0609 10.9274 12.0783 11.6775 12.8285C12.4277 13.5786 13.4451 14 14.506 14H19.218C19.3754 14.0007 19.5306 14.037 19.6719 14.1063C19.8133 14.1756 19.937 14.276 20.034 14.4C20.119 14.5066 20.1782 14.6314 20.207 14.7646C20.2358 14.8978 20.2334 15.0359 20.2 15.168H20.201Z" fill="white"/>
<path d="M24.151 7.4459C23.6906 5.75337 22.7962 4.2104 21.5564 2.96967C20.3165 1.72895 18.7742 0.833486 17.082 0.371895C16.9046 0.324204 16.7217 0.299998 16.538 0.299895C16.2737 0.297385 16.0116 0.347263 15.7668 0.446648C15.5219 0.546033 15.2992 0.692954 15.1115 0.878921C14.9237 1.06489 14.7747 1.28622 14.673 1.53011C14.5713 1.77401 14.519 2.03564 14.519 2.29989V6.9999C14.519 7.79554 14.8351 8.55861 15.3977 9.12122C15.9603 9.68382 16.7233 9.9999 17.519 9.9999H22.238C22.5467 9.99693 22.8505 9.92283 23.1259 9.78337C23.4012 9.64391 23.6408 9.44284 23.8258 9.19578C24.0109 8.94872 24.1365 8.66232 24.1929 8.35883C24.2493 8.05535 24.2349 7.74294 24.151 7.4459ZM21.653 7.9999H17.515C17.2498 7.9999 16.9954 7.89454 16.8079 7.707C16.6203 7.51947 16.515 7.26511 16.515 6.9999L16.507 2.30689C16.5143 2.3016 16.523 2.29848 16.532 2.2979H16.558C17.9201 2.66898 19.161 3.39081 20.157 4.39134C21.153 5.39187 21.8691 6.63611 22.234 7.9999H21.653Z" fill="white"/>
</g>
<defs>
<clipPath id="clip0_526_463">
<rect width="24" height="24" fill="white" transform="translate(0.5)"/>
</clipPath>
</defs>
</svg>
