<svg width="25" height="24" viewBox="0 0 25 24" fill="none" xmlns="http://www.w3.org/2000/svg">
<g clip-path="url(#clip0_526_442)">
<path d="M19.5 4H15.5V3C15.5 2.20435 15.1839 1.44129 14.6213 0.87868C14.0587 0.31607 13.2956 0 12.5 0C11.7044 0 10.9413 0.31607 10.3787 0.87868C9.81607 1.44129 9.5 2.20435 9.5 3V4H5.5C4.17441 4.00159 2.90356 4.52888 1.96622 5.46622C1.02888 6.40356 0.501588 7.67441 0.5 9L0.5 19C0.501588 20.3256 1.02888 21.5964 1.96622 22.5338C2.90356 23.4711 4.17441 23.9984 5.5 24H19.5C20.8256 23.9984 22.0964 23.4711 23.0338 22.5338C23.9711 21.5964 24.4984 20.3256 24.5 19V9C24.4984 7.67441 23.9711 6.40356 23.0338 5.46622C22.0964 4.52888 20.8256 4.00159 19.5 4ZM11.5 3C11.5 2.73478 11.6054 2.48043 11.7929 2.29289C11.9804 2.10536 12.2348 2 12.5 2C12.7652 2 13.0196 2.10536 13.2071 2.29289C13.3946 2.48043 13.5 2.73478 13.5 3V5C13.5 5.26522 13.3946 5.51957 13.2071 5.70711C13.0196 5.89464 12.7652 6 12.5 6C12.2348 6 11.9804 5.89464 11.7929 5.70711C11.6054 5.51957 11.5 5.26522 11.5 5V3ZM22.5 19C22.5 19.7956 22.1839 20.5587 21.6213 21.1213C21.0587 21.6839 20.2956 22 19.5 22H5.5C4.70435 22 3.94129 21.6839 3.37868 21.1213C2.81607 20.5587 2.5 19.7956 2.5 19V9C2.5 8.20435 2.81607 7.44129 3.37868 6.87868C3.94129 6.31607 4.70435 6 5.5 6H9.684C9.88765 6.58454 10.2682 7.09123 10.7727 7.44977C11.2773 7.80831 11.881 8.00095 12.5 8.00095C13.119 8.00095 13.7227 7.80831 14.2273 7.44977C14.7318 7.09123 15.1124 6.58454 15.316 6H19.5C20.2956 6 21.0587 6.31607 21.6213 6.87868C22.1839 7.44129 22.5 8.20435 22.5 9V19ZM10.5 10H5.5C5.23478 10 4.98043 10.1054 4.79289 10.2929C4.60536 10.4804 4.5 10.7348 4.5 11V19C4.5 19.2652 4.60536 19.5196 4.79289 19.7071C4.98043 19.8946 5.23478 20 5.5 20H10.5C10.7652 20 11.0196 19.8946 11.2071 19.7071C11.3946 19.5196 11.5 19.2652 11.5 19V11C11.5 10.7348 11.3946 10.4804 11.2071 10.2929C11.0196 10.1054 10.7652 10 10.5 10ZM9.5 18H6.5V12H9.5V18ZM20.5 15C20.5 15.2652 20.3946 15.5196 20.2071 15.7071C20.0196 15.8946 19.7652 16 19.5 16H14.5C14.2348 16 13.9804 15.8946 13.7929 15.7071C13.6054 15.5196 13.5 15.2652 13.5 15C13.5 14.7348 13.6054 14.4804 13.7929 14.2929C13.9804 14.1054 14.2348 14 14.5 14H19.5C19.7652 14 20.0196 14.1054 20.2071 14.2929C20.3946 14.4804 20.5 14.7348 20.5 15ZM20.5 11C20.5 11.2652 20.3946 11.5196 20.2071 11.7071C20.0196 11.8946 19.7652 12 19.5 12H14.5C14.2348 12 13.9804 11.8946 13.7929 11.7071C13.6054 11.5196 13.5 11.2652 13.5 11C13.5 10.7348 13.6054 10.4804 13.7929 10.2929C13.9804 10.1054 14.2348 10 14.5 10H19.5C19.7652 10 20.0196 10.1054 20.2071 10.2929C20.3946 10.4804 20.5 10.7348 20.5 11ZM18.5 19C18.5 19.2652 18.3946 19.5196 18.2071 19.7071C18.0196 19.8946 17.7652 20 17.5 20H14.5C14.2348 20 13.9804 19.8946 13.7929 19.7071C13.6054 19.5196 13.5 19.2652 13.5 19C13.5 18.7348 13.6054 18.4804 13.7929 18.2929C13.9804 18.1054 14.2348 18 14.5 18H17.5C17.7652 18 18.0196 18.1054 18.2071 18.2929C18.3946 18.4804 18.5 18.7348 18.5 19Z" fill="white"/>
</g>
<defs>
<clipPath id="clip0_526_442">
<rect width="24" height="24" fill="white" transform="translate(0.5)"/>
</clipPath>
</defs>
</svg>
