<svg width="25" height="24" viewBox="0 0 25 24" fill="none" xmlns="http://www.w3.org/2000/svg">
<g clip-path="url(#clip0_526_466)">
<path d="M19.081 2.14L12.816 0.0509967C12.6109 -0.0173244 12.3891 -0.0173244 12.184 0.0509967L5.919 2.14C4.92291 2.47088 4.05642 3.10725 3.44265 3.95871C2.82887 4.81016 2.49904 5.83338 2.5 6.883V12C2.5 19.563 11.7 23.74 12.094 23.914C12.2218 23.9708 12.3601 24.0001 12.5 24.0001C12.6399 24.0001 12.7782 23.9708 12.906 23.914C13.3 23.74 22.5 19.563 22.5 12V6.883C22.501 5.83338 22.1711 4.81016 21.5574 3.95871C20.9436 3.10725 20.0771 2.47088 19.081 2.14ZM20.5 12C20.5 17.455 14.181 21.033 12.5 21.889C10.817 21.036 4.5 17.469 4.5 12V6.883C4.50006 6.25327 4.69828 5.63954 5.06657 5.12874C5.43486 4.61794 5.95455 4.23599 6.552 4.037L12.5 2.054L18.448 4.037C19.0455 4.23599 19.5651 4.61794 19.9334 5.12874C20.3017 5.63954 20.4999 6.25327 20.5 6.883V12Z" fill="white"/>
<path d="M15.8 8.30008L11.612 12.5001L9.36798 10.1601C9.27792 10.0616 9.16907 9.98217 9.04784 9.92642C8.9266 9.87068 8.79544 9.83976 8.66207 9.83549C8.5287 9.83122 8.39583 9.85368 8.27128 9.90155C8.14673 9.94943 8.03302 10.0217 7.93685 10.1142C7.84068 10.2067 7.76399 10.3176 7.71131 10.4402C7.65862 10.5627 7.63101 10.6946 7.63009 10.8281C7.62917 10.9615 7.65496 11.0938 7.70595 11.2171C7.75694 11.3404 7.83209 11.4523 7.92698 11.5461L10.233 13.9461C10.405 14.1318 10.6128 14.2808 10.844 14.3839C11.0752 14.487 11.3249 14.5422 11.578 14.5461H11.611C11.859 14.5469 12.1048 14.4984 12.334 14.4035C12.5631 14.3086 12.7712 14.1691 12.946 13.9931L17.218 9.72107C17.3113 9.62797 17.3853 9.51739 17.4359 9.39567C17.4865 9.27394 17.5126 9.14345 17.5127 9.01164C17.5129 8.87982 17.487 8.74927 17.4367 8.62744C17.3864 8.50561 17.3126 8.39488 17.2195 8.30158C17.1264 8.20827 17.0158 8.13422 16.8941 8.08365C16.7723 8.03308 16.6419 8.00698 16.51 8.00684C16.3782 8.0067 16.2477 8.03252 16.1258 8.08284C16.004 8.13315 15.8933 8.20697 15.8 8.30008Z" fill="white"/>
</g>
<defs>
<clipPath id="clip0_526_466">
<rect width="24" height="24" fill="white" transform="translate(0.5)"/>
</clipPath>
</defs>
</svg>
