<svg width="25" height="24" viewBox="0 0 25 24" fill="none" xmlns="http://www.w3.org/2000/svg">
<g clip-path="url(#clip0_526_447)">
<path d="M18.5 24H6.5C5.17441 23.9984 3.90356 23.4711 2.96622 22.5338C2.02888 21.5964 1.50159 20.3256 1.5 19V5C1.50159 3.67441 2.02888 2.40356 2.96622 1.46622C3.90356 0.528882 5.17441 0.00158786 6.5 0L18.5 0C19.8256 0.00158786 21.0964 0.528882 22.0338 1.46622C22.9711 2.40356 23.4984 3.67441 23.5 5V19C23.4984 20.3256 22.9711 21.5964 22.0338 22.5338C21.0964 23.4711 19.8256 23.9984 18.5 24ZM6.5 2C5.70435 2 4.94129 2.31607 4.37868 2.87868C3.81607 3.44129 3.5 4.20435 3.5 5V19C3.5 19.7956 3.81607 20.5587 4.37868 21.1213C4.94129 21.6839 5.70435 22 6.5 22H18.5C19.2956 22 20.0587 21.6839 20.6213 21.1213C21.1839 20.5587 21.5 19.7956 21.5 19V5C21.5 4.20435 21.1839 3.44129 20.6213 2.87868C20.0587 2.31607 19.2956 2 18.5 2H6.5ZM16.5 10H8.5C7.70435 10 6.94129 9.68393 6.37868 9.12132C5.81607 8.55871 5.5 7.79565 5.5 7C5.5 6.20435 5.81607 5.44129 6.37868 4.87868C6.94129 4.31607 7.70435 4 8.5 4H16.5C17.2956 4 18.0587 4.31607 18.6213 4.87868C19.1839 5.44129 19.5 6.20435 19.5 7C19.5 7.79565 19.1839 8.55871 18.6213 9.12132C18.0587 9.68393 17.2956 10 16.5 10ZM8.5 6C8.23478 6 7.98043 6.10536 7.79289 6.29289C7.60536 6.48043 7.5 6.73478 7.5 7C7.5 7.26522 7.60536 7.51957 7.79289 7.70711C7.98043 7.89464 8.23478 8 8.5 8H16.5C16.7652 8 17.0196 7.89464 17.2071 7.70711C17.3946 7.51957 17.5 7.26522 17.5 7C17.5 6.73478 17.3946 6.48043 17.2071 6.29289C17.0196 6.10536 16.7652 6 16.5 6H8.5ZM6.5 13C6.30222 13 6.10888 13.0586 5.94443 13.1685C5.77998 13.2784 5.65181 13.4346 5.57612 13.6173C5.50043 13.8 5.48063 14.0011 5.51921 14.1951C5.5578 14.3891 5.65304 14.5673 5.79289 14.7071C5.93275 14.847 6.11093 14.9422 6.30491 14.9808C6.49889 15.0194 6.69996 14.9996 6.88268 14.9239C7.06541 14.8482 7.22159 14.72 7.33147 14.5556C7.44135 14.3911 7.5 14.1978 7.5 14C7.5 13.7348 7.39464 13.4804 7.20711 13.2929C7.01957 13.1054 6.76522 13 6.5 13ZM10.5 13C10.3022 13 10.1089 13.0586 9.94443 13.1685C9.77998 13.2784 9.65181 13.4346 9.57612 13.6173C9.50043 13.8 9.48063 14.0011 9.51921 14.1951C9.5578 14.3891 9.65304 14.5673 9.79289 14.7071C9.93275 14.847 10.1109 14.9422 10.3049 14.9808C10.4989 15.0194 10.7 14.9996 10.8827 14.9239C11.0654 14.8482 11.2216 14.72 11.3315 14.5556C11.4414 14.3911 11.5 14.1978 11.5 14C11.5 13.7348 11.3946 13.4804 11.2071 13.2929C11.0196 13.1054 10.7652 13 10.5 13ZM14.5 13C14.3022 13 14.1089 13.0586 13.9444 13.1685C13.78 13.2784 13.6518 13.4346 13.5761 13.6173C13.5004 13.8 13.4806 14.0011 13.5192 14.1951C13.5578 14.3891 13.653 14.5673 13.7929 14.7071C13.9327 14.847 14.1109 14.9422 14.3049 14.9808C14.4989 15.0194 14.7 14.9996 14.8827 14.9239C15.0654 14.8482 15.2216 14.72 15.3315 14.5556C15.4414 14.3911 15.5 14.1978 15.5 14C15.5 13.7348 15.3946 13.4804 15.2071 13.2929C15.0196 13.1054 14.7652 13 14.5 13ZM6.5 17C6.30222 17 6.10888 17.0586 5.94443 17.1685C5.77998 17.2784 5.65181 17.4346 5.57612 17.6173C5.50043 17.8 5.48063 18.0011 5.51921 18.1951C5.5578 18.3891 5.65304 18.5673 5.79289 18.7071C5.93275 18.847 6.11093 18.9422 6.30491 18.9808C6.49889 19.0194 6.69996 18.9996 6.88268 18.9239C7.06541 18.8482 7.22159 18.72 7.33147 18.5556C7.44135 18.3911 7.5 18.1978 7.5 18C7.5 17.7348 7.39464 17.4804 7.20711 17.2929C7.01957 17.1054 6.76522 17 6.5 17ZM10.5 17C10.3022 17 10.1089 17.0586 9.94443 17.1685C9.77998 17.2784 9.65181 17.4346 9.57612 17.6173C9.50043 17.8 9.48063 18.0011 9.51921 18.1951C9.5578 18.3891 9.65304 18.5673 9.79289 18.7071C9.93275 18.847 10.1109 18.9422 10.3049 18.9808C10.4989 19.0194 10.7 18.9996 10.8827 18.9239C11.0654 18.8482 11.2216 18.72 11.3315 18.5556C11.4414 18.3911 11.5 18.1978 11.5 18C11.5 17.7348 11.3946 17.4804 11.2071 17.2929C11.0196 17.1054 10.7652 17 10.5 17ZM18.5 13C18.3022 13 18.1089 13.0586 17.9444 13.1685C17.78 13.2784 17.6518 13.4346 17.5761 13.6173C17.5004 13.8 17.4806 14.0011 17.5192 14.1951C17.5578 14.3891 17.653 14.5673 17.7929 14.7071C17.9327 14.847 18.1109 14.9422 18.3049 14.9808C18.4989 15.0194 18.7 14.9996 18.8827 14.9239C19.0654 14.8482 19.2216 14.72 19.3315 14.5556C19.4414 14.3911 19.5 14.1978 19.5 14C19.5 13.7348 19.3946 13.4804 19.2071 13.2929C19.0196 13.1054 18.7652 13 18.5 13ZM19.5 18C19.5 17.7348 19.3946 17.4804 19.2071 17.2929C19.0196 17.1054 18.7652 17 18.5 17H14.5C14.2348 17 13.9804 17.1054 13.7929 17.2929C13.6054 17.4804 13.5 17.7348 13.5 18C13.5 18.2652 13.6054 18.5196 13.7929 18.7071C13.9804 18.8946 14.2348 19 14.5 19H18.5C18.7652 19 19.0196 18.8946 19.2071 18.7071C19.3946 18.5196 19.5 18.2652 19.5 18Z" fill="white"/>
</g>
<defs>
<clipPath id="clip0_526_447">
<rect width="24" height="24" fill="white" transform="translate(0.5)"/>
</clipPath>
</defs>
</svg>
