<svg width="25" height="24" viewBox="0 0 25 24" fill="none" xmlns="http://www.w3.org/2000/svg">
<g clip-path="url(#clip0_526_469)">
<path d="M19.5 2H18.5V1C18.5 0.734784 18.3946 0.48043 18.2071 0.292893C18.0196 0.105357 17.7652 0 17.5 0C17.2348 0 16.9804 0.105357 16.7929 0.292893C16.6054 0.48043 16.5 0.734784 16.5 1V2H8.5V1C8.5 0.734784 8.39464 0.48043 8.20711 0.292893C8.01957 0.105357 7.76522 0 7.5 0C7.23478 0 6.98043 0.105357 6.79289 0.292893C6.60536 0.48043 6.5 0.734784 6.5 1V2H5.5C4.17441 2.00159 2.90356 2.52888 1.96622 3.46622C1.02888 4.40356 0.501588 5.67441 0.5 7L0.5 19C0.501588 20.3256 1.02888 21.5964 1.96622 22.5338C2.90356 23.4711 4.17441 23.9984 5.5 24H19.5C20.8256 23.9984 22.0964 23.4711 23.0338 22.5338C23.9711 21.5964 24.4984 20.3256 24.5 19V7C24.4984 5.67441 23.9711 4.40356 23.0338 3.46622C22.0964 2.52888 20.8256 2.00159 19.5 2ZM2.5 7C2.5 6.20435 2.81607 5.44129 3.37868 4.87868C3.94129 4.31607 4.70435 4 5.5 4H19.5C20.2956 4 21.0587 4.31607 21.6213 4.87868C22.1839 5.44129 22.5 6.20435 22.5 7V8H2.5V7ZM19.5 22H5.5C4.70435 22 3.94129 21.6839 3.37868 21.1213C2.81607 20.5587 2.5 19.7956 2.5 19V10H22.5V19C22.5 19.7956 22.1839 20.5587 21.6213 21.1213C21.0587 21.6839 20.2956 22 19.5 22Z" fill="white"/>
<path d="M12.5 16.5C13.3284 16.5 14 15.8284 14 15C14 14.1716 13.3284 13.5 12.5 13.5C11.6716 13.5 11 14.1716 11 15C11 15.8284 11.6716 16.5 12.5 16.5Z" fill="white"/>
<path d="M7.5 16.5C8.32843 16.5 9 15.8284 9 15C9 14.1716 8.32843 13.5 7.5 13.5C6.67157 13.5 6 14.1716 6 15C6 15.8284 6.67157 16.5 7.5 16.5Z" fill="white"/>
<path d="M17.5 16.5C18.3284 16.5 19 15.8284 19 15C19 14.1716 18.3284 13.5 17.5 13.5C16.6716 13.5 16 14.1716 16 15C16 15.8284 16.6716 16.5 17.5 16.5Z" fill="white"/>
</g>
<defs>
<clipPath id="clip0_526_469">
<rect width="24" height="24" fill="white" transform="translate(0.5)"/>
</clipPath>
</defs>
</svg>
