<svg width="25" height="24" viewBox="0 0 25 24" fill="none" xmlns="http://www.w3.org/2000/svg">
<g clip-path="url(#clip0_526_456)">
<path d="M23.5 22H5.5C4.70435 22 3.94129 21.6839 3.37868 21.1213C2.81607 20.5587 2.5 19.7956 2.5 19V1C2.5 0.734784 2.39464 0.48043 2.20711 0.292893C2.01957 0.105357 1.76522 0 1.5 0C1.23478 0 0.98043 0.105357 0.792893 0.292893C0.605357 0.48043 0.5 0.734784 0.5 1L0.5 19C0.501588 20.3256 1.02888 21.5964 1.96622 22.5338C2.90356 23.4711 4.17441 23.9984 5.5 24H23.5C23.7652 24 24.0196 23.8946 24.2071 23.7071C24.3946 23.5196 24.5 23.2652 24.5 23C24.5 22.7348 24.3946 22.4804 24.2071 22.2929C24.0196 22.1054 23.7652 22 23.5 22Z" fill="white"/>
<path d="M6.5 20C6.76522 20 7.01957 19.8946 7.20711 19.7071C7.39464 19.5196 7.5 19.2652 7.5 19V12C7.5 11.7348 7.39464 11.4804 7.20711 11.2929C7.01957 11.1054 6.76522 11 6.5 11C6.23478 11 5.98043 11.1054 5.79289 11.2929C5.60536 11.4804 5.5 11.7348 5.5 12V19C5.5 19.2652 5.60536 19.5196 5.79289 19.7071C5.98043 19.8946 6.23478 20 6.5 20Z" fill="white"/>
<path d="M10.5 10V19C10.5 19.2652 10.6054 19.5196 10.7929 19.7071C10.9804 19.8946 11.2348 20 11.5 20C11.7652 20 12.0196 19.8946 12.2071 19.7071C12.3946 19.5196 12.5 19.2652 12.5 19V10C12.5 9.73478 12.3946 9.48043 12.2071 9.29289C12.0196 9.10536 11.7652 9 11.5 9C11.2348 9 10.9804 9.10536 10.7929 9.29289C10.6054 9.48043 10.5 9.73478 10.5 10Z" fill="white"/>
<path d="M15.5 13V19C15.5 19.2652 15.6054 19.5196 15.7929 19.7071C15.9804 19.8946 16.2348 20 16.5 20C16.7652 20 17.0196 19.8946 17.2071 19.7071C17.3946 19.5196 17.5 19.2652 17.5 19V13C17.5 12.7348 17.3946 12.4804 17.2071 12.2929C17.0196 12.1054 16.7652 12 16.5 12C16.2348 12 15.9804 12.1054 15.7929 12.2929C15.6054 12.4804 15.5 12.7348 15.5 13Z" fill="white"/>
<path d="M20.5 9V19C20.5 19.2652 20.6054 19.5196 20.7929 19.7071C20.9804 19.8946 21.2348 20 21.5 20C21.7652 20 22.0196 19.8946 22.2071 19.7071C22.3946 19.5196 22.5 19.2652 22.5 19V9C22.5 8.73478 22.3946 8.48043 22.2071 8.29289C22.0196 8.10536 21.7652 8 21.5 8C21.2348 8 20.9804 8.10536 20.7929 8.29289C20.6054 8.48043 20.5 8.73478 20.5 9Z" fill="white"/>
<path d="M6.49997 8.99992C6.76516 8.99986 7.01948 8.89447 7.20697 8.70692L10.793 5.12092C10.9836 4.93934 11.2367 4.83806 11.5 4.83806C11.7632 4.83806 12.0164 4.93934 12.207 5.12092L14.379 7.29292C14.9416 7.85533 15.7045 8.17128 16.5 8.17128C17.2955 8.17128 18.0584 7.85533 18.621 7.29292L24.207 1.70692C24.3891 1.51832 24.4899 1.26571 24.4876 1.00352C24.4854 0.741321 24.3802 0.490508 24.1948 0.3051C24.0094 0.119692 23.7586 0.0145233 23.4964 0.0122448C23.2342 0.00996641 22.9816 0.110761 22.793 0.292919L17.207 5.87792C17.0194 6.06539 16.7651 6.17071 16.5 6.17071C16.2348 6.17071 15.9805 6.06539 15.793 5.87792L13.621 3.70692C13.0584 3.14451 12.2955 2.82856 11.5 2.82856C10.7045 2.82856 9.94155 3.14451 9.37897 3.70692L5.79297 7.29292C5.65316 7.43277 5.55795 7.61093 5.51939 7.80489C5.48082 7.99884 5.50062 8.19987 5.57629 8.38257C5.65196 8.56527 5.7801 8.72144 5.94451 8.83132C6.10892 8.94121 6.30222 8.99988 6.49997 8.99992Z" fill="white"/>
</g>
<defs>
<clipPath id="clip0_526_456">
<rect width="24" height="24" fill="white" transform="translate(0.5)"/>
</clipPath>
</defs>
</svg>
