<svg width="25" height="24" viewBox="0 0 25 24" fill="none" xmlns="http://www.w3.org/2000/svg">
<path d="M8.5 11H4.5C3.70435 11 2.94129 10.6839 2.37868 10.1213C1.81607 9.55871 1.5 8.79565 1.5 8V4C1.5 3.20435 1.81607 2.44129 2.37868 1.87868C2.94129 1.31607 3.70435 1 4.5 1H8.5C9.29565 1 10.0587 1.31607 10.6213 1.87868C11.1839 2.44129 11.5 3.20435 11.5 4V8C11.5 8.79565 11.1839 9.55871 10.6213 10.1213C10.0587 10.6839 9.29565 11 8.5 11ZM4.5 3C4.23478 3 3.98043 3.10536 3.79289 3.29289C3.60536 3.48043 3.5 3.73478 3.5 4V8C3.5 8.26522 3.60536 8.51957 3.79289 8.70711C3.98043 8.89464 4.23478 9 4.5 9H8.5C8.76522 9 9.01957 8.89464 9.20711 8.70711C9.39464 8.51957 9.5 8.26522 9.5 8V4C9.5 3.73478 9.39464 3.48043 9.20711 3.29289C9.01957 3.10536 8.76522 3 8.5 3H4.5ZM20.5 11H16.5C15.7044 11 14.9413 10.6839 14.3787 10.1213C13.8161 9.55871 13.5 8.79565 13.5 8V4C13.5 3.20435 13.8161 2.44129 14.3787 1.87868C14.9413 1.31607 15.7044 1 16.5 1H20.5C21.2956 1 22.0587 1.31607 22.6213 1.87868C23.1839 2.44129 23.5 3.20435 23.5 4V8C23.5 8.79565 23.1839 9.55871 22.6213 10.1213C22.0587 10.6839 21.2956 11 20.5 11ZM16.5 3C16.2348 3 15.9804 3.10536 15.7929 3.29289C15.6054 3.48043 15.5 3.73478 15.5 4V8C15.5 8.26522 15.6054 8.51957 15.7929 8.70711C15.9804 8.89464 16.2348 9 16.5 9H20.5C20.7652 9 21.0196 8.89464 21.2071 8.70711C21.3946 8.51957 21.5 8.26522 21.5 8V4C21.5 3.73478 21.3946 3.48043 21.2071 3.29289C21.0196 3.10536 20.7652 3 20.5 3H16.5ZM8.5 23H4.5C3.70435 23 2.94129 22.6839 2.37868 22.1213C1.81607 21.5587 1.5 20.7956 1.5 20V16C1.5 15.2044 1.81607 14.4413 2.37868 13.8787C2.94129 13.3161 3.70435 13 4.5 13H8.5C9.29565 13 10.0587 13.3161 10.6213 13.8787C11.1839 14.4413 11.5 15.2044 11.5 16V20C11.5 20.7956 11.1839 21.5587 10.6213 22.1213C10.0587 22.6839 9.29565 23 8.5 23ZM4.5 15C4.23478 15 3.98043 15.1054 3.79289 15.2929C3.60536 15.4804 3.5 15.7348 3.5 16V20C3.5 20.2652 3.60536 20.5196 3.79289 20.7071C3.98043 20.8946 4.23478 21 4.5 21H8.5C8.76522 21 9.01957 20.8946 9.20711 20.7071C9.39464 20.5196 9.5 20.2652 9.5 20V16C9.5 15.7348 9.39464 15.4804 9.20711 15.2929C9.01957 15.1054 8.76522 15 8.5 15H4.5ZM20.5 23H16.5C15.7044 23 14.9413 22.6839 14.3787 22.1213C13.8161 21.5587 13.5 20.7956 13.5 20V16C13.5 15.2044 13.8161 14.4413 14.3787 13.8787C14.9413 13.3161 15.7044 13 16.5 13H20.5C21.2956 13 22.0587 13.3161 22.6213 13.8787C23.1839 14.4413 23.5 15.2044 23.5 16V20C23.5 20.7956 23.1839 21.5587 22.6213 22.1213C22.0587 22.6839 21.2956 23 20.5 23ZM16.5 15C16.2348 15 15.9804 15.1054 15.7929 15.2929C15.6054 15.4804 15.5 15.7348 15.5 16V20C15.5 20.2652 15.6054 20.5196 15.7929 20.7071C15.9804 20.8946 16.2348 21 16.5 21H20.5C20.7652 21 21.0196 20.8946 21.2071 20.7071C21.3946 20.5196 21.5 20.2652 21.5 20V16C21.5 15.7348 21.3946 15.4804 21.2071 15.2929C21.0196 15.1054 20.7652 15 20.5 15H16.5Z" fill="white"/>
</svg>
