<svg width="25" height="24" viewBox="0 0 25 24" fill="none" xmlns="http://www.w3.org/2000/svg">
<g clip-path="url(#clip0_526_452)">
<path d="M21.5 12H18.5C17.9696 12 17.4609 12.2107 17.0858 12.5858C16.7107 12.9609 16.5 13.4696 16.5 14C16.5 14.5304 16.2893 15.0391 15.9142 15.4142C15.5391 15.7893 15.0304 16 14.5 16H10.5C9.96957 16 9.46086 15.7893 9.08579 15.4142C8.71071 15.0391 8.5 14.5304 8.5 14C8.5 13.4696 8.28929 12.9609 7.91421 12.5858C7.53914 12.2107 7.03043 12 6.5 12H3.5C2.70435 12 1.94129 12.3161 1.37868 12.8787C0.81607 13.4413 0.5 14.2044 0.5 15L0.5 19C0.501588 20.3256 1.02888 21.5964 1.96622 22.5338C2.90356 23.4711 4.17441 23.9984 5.5 24H19.5C20.8256 23.9984 22.0964 23.4711 23.0338 22.5338C23.9711 21.5964 24.4984 20.3256 24.5 19V15C24.5 14.2044 24.1839 13.4413 23.6213 12.8787C23.0587 12.3161 22.2956 12 21.5 12ZM22.5 19C22.5 19.7956 22.1839 20.5587 21.6213 21.1213C21.0587 21.6839 20.2956 22 19.5 22H5.5C4.70435 22 3.94129 21.6839 3.37868 21.1213C2.81607 20.5587 2.5 19.7956 2.5 19V15C2.5 14.7348 2.60536 14.4804 2.79289 14.2929C2.98043 14.1054 3.23478 14 3.5 14H6.5C6.5 15.0609 6.92143 16.0783 7.67157 16.8284C8.42172 17.5786 9.43913 18 10.5 18H14.5C15.5609 18 16.5783 17.5786 17.3284 16.8284C18.0786 16.0783 18.5 15.0609 18.5 14H21.5C21.7652 14 22.0196 14.1054 22.2071 14.2929C22.3946 14.4804 22.5 14.7348 22.5 15V19Z" fill="white"/>
<path d="M3.5 10H21.5C21.7652 10 22.0196 9.89464 22.2071 9.70711C22.3946 9.51957 22.5 9.26522 22.5 9C22.5 8.73478 22.3946 8.48043 22.2071 8.29289C22.0196 8.10536 21.7652 8 21.5 8H3.5C3.23478 8 2.98043 8.10536 2.79289 8.29289C2.60536 8.48043 2.5 8.73478 2.5 9C2.5 9.26522 2.60536 9.51957 2.79289 9.70711C2.98043 9.89464 3.23478 10 3.5 10Z" fill="white"/>
<path d="M3.5 6H21.5C21.7652 6 22.0196 5.89464 22.2071 5.70711C22.3946 5.51957 22.5 5.26522 22.5 5C22.5 4.73478 22.3946 4.48043 22.2071 4.29289C22.0196 4.10536 21.7652 4 21.5 4H3.5C3.23478 4 2.98043 4.10536 2.79289 4.29289C2.60536 4.48043 2.5 4.73478 2.5 5C2.5 5.26522 2.60536 5.51957 2.79289 5.70711C2.98043 5.89464 3.23478 6 3.5 6Z" fill="white"/>
</g>
<defs>
<clipPath id="clip0_526_452">
<rect width="24" height="24" fill="white" transform="translate(0.5)"/>
</clipPath>
</defs>
</svg>
