<svg width="25" height="24" viewBox="0 0 25 24" fill="none" xmlns="http://www.w3.org/2000/svg">
<g clip-path="url(#clip0_526_474)">
<path d="M24.5 23.0001C24.5 23.2653 24.3947 23.5196 24.2071 23.7072C24.0196 23.8947 23.7652 24.0001 23.5 24.0001H1.50002C1.23481 24.0001 0.980454 23.8947 0.792918 23.7072C0.605381 23.5196 0.500025 23.2653 0.500025 23.0001C0.500025 22.7348 0.605381 22.4805 0.792918 22.2929C0.980454 22.1054 1.23481 22.0001 1.50002 22.0001H23.5C23.7652 22.0001 24.0196 22.1054 24.2071 22.2929C24.3947 22.4805 24.5 22.7348 24.5 23.0001ZM0.791025 8.55206C0.575547 8.15238 0.475719 7.70056 0.502745 7.24731C0.529771 6.79405 0.68258 6.3573 0.944025 5.98606C1.37128 5.35917 1.94347 4.84462 2.61202 4.48606L10.113 0.582055C10.8503 0.198686 11.669 -0.00146484 12.5 -0.00146484C13.331 -0.00146484 14.1498 0.198686 14.887 0.582055L22.387 4.48906C23.0556 4.84762 23.6278 5.36217 24.055 5.98906C24.3165 6.36029 24.4693 6.79705 24.4963 7.25031C24.5233 7.70356 24.4235 8.15538 24.208 8.55506C23.976 8.99389 23.6281 9.36066 23.2021 9.61544C22.7761 9.87023 22.2884 10.0033 21.792 10.0001H21.5V18.0001H22.5C22.7652 18.0001 23.0196 18.1054 23.2071 18.2929C23.3947 18.4805 23.5 18.7348 23.5 19.0001C23.5 19.2653 23.3947 19.5196 23.2071 19.7072C23.0196 19.8947 22.7652 20.0001 22.5 20.0001H2.50002C2.23481 20.0001 1.98045 19.8947 1.79292 19.7072C1.60538 19.5196 1.50002 19.2653 1.50002 19.0001C1.50002 18.7348 1.60538 18.4805 1.79292 18.2929C1.98045 18.1054 2.23481 18.0001 2.50002 18.0001H3.50003V10.0001H3.20802C2.71118 10.0032 2.22303 9.86976 1.79681 9.61442C1.3706 9.35908 1.02268 8.9916 0.791025 8.55206ZM5.50003 18.0001H8.50003V10.0001H5.50003V18.0001ZM10.5 10.0001V18.0001H14.5V10.0001H10.5ZM19.5 10.0001H16.5V18.0001H19.5V10.0001ZM2.56302 7.62506C2.62577 7.74074 2.71914 7.83692 2.83291 7.90306C2.94668 7.9692 3.07645 8.00276 3.20802 8.00006H21.792C21.9236 8.00276 22.0534 7.9692 22.1671 7.90306C22.2809 7.83692 22.3743 7.74074 22.437 7.62506C22.4827 7.54862 22.5048 7.46039 22.5006 7.37143C22.4963 7.28248 22.4658 7.19676 22.413 7.12506C22.1707 6.76497 21.8452 6.4686 21.464 6.26106L13.964 2.35406C13.512 2.11948 13.0103 1.99703 12.501 1.99703C11.9918 1.99703 11.49 2.11948 11.038 2.35406L3.53803 6.26106C3.15701 6.46926 2.83155 6.76591 2.58902 7.12606C2.53611 7.19746 2.50543 7.28288 2.5008 7.37164C2.49618 7.46039 2.51782 7.54854 2.56302 7.62506Z" fill="white"/>
</g>
<defs>
<clipPath id="clip0_526_474">
<rect width="24" height="24" fill="white" transform="translate(0.5)"/>
</clipPath>
</defs>
</svg>
