<svg width="20" height="20" viewBox="0 0 20 20" fill="none" xmlns="http://www.w3.org/2000/svg">
<g clip-path="url(#clip0_0_1234)">
<path d="M15.8333 4.99988V3.33321C15.8333 2.44916 15.4821 1.60131 14.857 0.976189C14.2319 0.351067 13.3841 -0.00012207 12.5 -0.00012207L7.5 -0.00012207C6.61594 -0.00012207 5.7681 0.351067 5.14298 0.976189C4.51786 1.60131 4.16667 2.44916 4.16667 3.33321V4.99988C3.062 5.0012 2.00296 5.44061 1.22185 6.22173C0.440735 7.00284 0.00132321 8.06188 0 9.16654L0 13.3332C0.00132321 14.4379 0.440735 15.4969 1.22185 16.278C2.00296 17.0591 3.062 17.4986 4.16667 17.4999C4.16667 18.1629 4.43006 18.7988 4.8989 19.2676C5.36774 19.7365 6.00363 19.9999 6.66667 19.9999H13.3333C13.9964 19.9999 14.6323 19.7365 15.1011 19.2676C15.5699 18.7988 15.8333 18.1629 15.8333 17.4999C16.938 17.4986 17.997 17.0591 18.7782 16.278C19.5593 15.4969 19.9987 14.4379 20 13.3332V9.16654C19.9987 8.06188 19.5593 7.00284 18.7782 6.22173C17.997 5.44061 16.938 5.0012 15.8333 4.99988ZM5.83333 3.33321C5.83333 2.89118 6.00893 2.46726 6.32149 2.1547C6.63405 1.84214 7.05797 1.66654 7.5 1.66654H12.5C12.942 1.66654 13.3659 1.84214 13.6785 2.1547C13.9911 2.46726 14.1667 2.89118 14.1667 3.33321V4.99988H5.83333V3.33321ZM14.1667 17.4999C14.1667 17.7209 14.0789 17.9329 13.9226 18.0891C13.7663 18.2454 13.5543 18.3332 13.3333 18.3332H6.66667C6.44565 18.3332 6.23369 18.2454 6.07741 18.0891C5.92113 17.9329 5.83333 17.7209 5.83333 17.4999V14.1665C5.83333 13.9455 5.92113 13.7336 6.07741 13.5773C6.23369 13.421 6.44565 13.3332 6.66667 13.3332H13.3333C13.5543 13.3332 13.7663 13.421 13.9226 13.5773C14.0789 13.7336 14.1667 13.9455 14.1667 14.1665V17.4999ZM18.3333 13.3332C18.3333 13.9963 18.0699 14.6321 17.6011 15.101C17.1323 15.5698 16.4964 15.8332 15.8333 15.8332V14.1665C15.8333 13.5035 15.5699 12.8676 15.1011 12.3988C14.6323 11.9299 13.9964 11.6665 13.3333 11.6665H6.66667C6.00363 11.6665 5.36774 11.9299 4.8989 12.3988C4.43006 12.8676 4.16667 13.5035 4.16667 14.1665V15.8332C3.50363 15.8332 2.86774 15.5698 2.3989 15.101C1.93006 14.6321 1.66667 13.9963 1.66667 13.3332V9.16654C1.66667 8.5035 1.93006 7.86762 2.3989 7.39878C2.86774 6.92994 3.50363 6.66654 4.16667 6.66654H15.8333C16.4964 6.66654 17.1323 6.92994 17.6011 7.39878C18.0699 7.86762 18.3333 8.5035 18.3333 9.16654V13.3332Z" fill="#5F646E"/>
<path d="M15 8.33325H13.3333C13.1123 8.33325 12.9004 8.42105 12.7441 8.57733C12.5878 8.73361 12.5 8.94557 12.5 9.16659C12.5 9.3876 12.5878 9.59956 12.7441 9.75584C12.9004 9.91212 13.1123 9.99992 13.3333 9.99992H15C15.221 9.99992 15.433 9.91212 15.5893 9.75584C15.7455 9.59956 15.8333 9.3876 15.8333 9.16659C15.8333 8.94557 15.7455 8.73361 15.5893 8.57733C15.433 8.42105 15.221 8.33325 15 8.33325Z" fill="#5F646E"/>
</g>
<defs>
<clipPath id="clip0_0_1234">
<rect width="20" height="20" fill="white"/>
</clipPath>
</defs>
</svg>
