<svg width="20" height="20" viewBox="0 0 20 20" fill="none" xmlns="http://www.w3.org/2000/svg">
<g clip-path="url(#clip0_0_1233)">
<path d="M17.5 3.33321H14.9167C14.7233 2.39272 14.2115 1.54767 13.4677 0.940476C12.7239 0.333286 11.7935 0.00109003 10.8333 -0.00012207L9.16667 -0.00012207C8.2065 0.00109003 7.2761 0.333286 6.5323 0.940476C5.78849 1.54767 5.27675 2.39272 5.08334 3.33321H2.50001C2.27899 3.33321 2.06703 3.42101 1.91075 3.57729C1.75447 3.73357 1.66667 3.94553 1.66667 4.16654C1.66667 4.38756 1.75447 4.59952 1.91075 4.7558C2.06703 4.91208 2.27899 4.99988 2.50001 4.99988H3.33334V15.8332C3.33466 16.9379 3.77407 17.9969 4.55519 18.778C5.3363 19.5591 6.39534 19.9986 7.50001 19.9999H12.5C13.6047 19.9986 14.6637 19.5591 15.4448 18.778C16.2259 17.9969 16.6653 16.9379 16.6667 15.8332V4.99988H17.5C17.721 4.99988 17.933 4.91208 18.0893 4.7558C18.2455 4.59952 18.3333 4.38756 18.3333 4.16654C18.3333 3.94553 18.2455 3.73357 18.0893 3.57729C17.933 3.42101 17.721 3.33321 17.5 3.33321ZM9.16667 1.66654H10.8333C11.3502 1.66718 11.8543 1.82769 12.2764 2.12608C12.6984 2.42447 13.0179 2.84612 13.1908 3.33321H6.80917C6.98216 2.84612 7.30159 2.42447 7.72366 2.12608C8.14573 1.82769 8.64978 1.66718 9.16667 1.66654ZM15 15.8332C15 16.4963 14.7366 17.1321 14.2678 17.601C13.7989 18.0698 13.163 18.3332 12.5 18.3332H7.50001C6.83696 18.3332 6.20108 18.0698 5.73224 17.601C5.2634 17.1321 5.00001 16.4963 5.00001 15.8332V4.99988H15V15.8332Z" fill="#5F646E"/>
<path d="M8.33333 14.9999C8.55435 14.9999 8.76631 14.9121 8.92259 14.7558C9.07887 14.5996 9.16667 14.3876 9.16667 14.1666V9.16659C9.16667 8.94557 9.07887 8.73361 8.92259 8.57733C8.76631 8.42105 8.55435 8.33325 8.33333 8.33325C8.11232 8.33325 7.90036 8.42105 7.74408 8.57733C7.5878 8.73361 7.5 8.94557 7.5 9.16659V14.1666C7.5 14.3876 7.5878 14.5996 7.74408 14.7558C7.90036 14.9121 8.11232 14.9999 8.33333 14.9999Z" fill="#5F646E"/>
<path d="M11.6667 14.9999C11.8877 14.9999 12.0996 14.9121 12.2559 14.7558C12.4122 14.5996 12.5 14.3876 12.5 14.1666V9.16659C12.5 8.94557 12.4122 8.73361 12.2559 8.57733C12.0996 8.42105 11.8877 8.33325 11.6667 8.33325C11.4456 8.33325 11.2337 8.42105 11.0774 8.57733C10.9211 8.73361 10.8333 8.94557 10.8333 9.16659V14.1666C10.8333 14.3876 10.9211 14.5996 11.0774 14.7558C11.2337 14.9121 11.4456 14.9999 11.6667 14.9999Z" fill="#5F646E"/>
</g>
<defs>
<clipPath id="clip0_0_1233">
<rect width="20" height="20" fill="white"/>
</clipPath>
</defs>
</svg>
